<?xml version="1.0" encoding="utf-8" standalone="no"?>
<!DOCTYPE svg PUBLIC "-//W3C//DTD SVG 1.1//EN"
  "http://www.w3.org/Graphics/SVG/1.1/DTD/svg11.dtd">
<svg xmlns:xlink="http://www.w3.org/1999/xlink" width="408.312937pt" height="322.903937pt" viewBox="0 0 408.312937 322.903937" xmlns="http://www.w3.org/2000/svg" version="1.1">
 <metadata>
  <rdf:RDF xmlns:dc="http://purl.org/dc/elements/1.1/" xmlns:cc="http://creativecommons.org/ns#" xmlns:rdf="http://www.w3.org/1999/02/22-rdf-syntax-ns#">
   <cc:Work>
    <dc:type rdf:resource="http://purl.org/dc/dcmitype/StillImage"/>
    <dc:date>2024-08-02T02:41:55.254813</dc:date>
    <dc:format>image/svg+xml</dc:format>
    <dc:creator>
     <cc:Agent>
      <dc:title>Matplotlib v3.5.2, https://matplotlib.org/</dc:title>
     </cc:Agent>
    </dc:creator>
   </cc:Work>
  </rdf:RDF>
 </metadata>
 <defs>
  <style type="text/css">*{stroke-linejoin: round; stroke-linecap: butt}</style>
 </defs>
 <g id="figure_1">
  <g id="patch_1">
   <path d="M 0 322.903937 
L 408.312937 322.903937 
L 408.312937 0 
L 0 0 
z
" style="fill: #ffffff; stroke: #ffffff; stroke-linejoin: miter"/>
  </g>
  <g id="axes_1">
   <g id="patch_2">
    <path d="M 43.992938 273.312 
L 401.112938 273.312 
L 401.112938 7.2 
L 43.992938 7.2 
z
" style="fill: #ffffff"/>
   </g>
   <g id="matplotlib.axis_1">
    <g id="xtick_1">
     <g id="line2d_1">
      <path d="M 50.647347 273.312 
" style="fill: none; stroke: #000000; stroke-width: 1.5"/>
      <defs>
       <path id="m5087504066" d="M 0 0 
L 0 2.75 
" style="stroke: #333333"/>
      </defs>
      <g>
       <use xlink:href="#m5087504066" x="50.647347" y="273.312" style="stroke: #333333"/>
      </g>
     </g>
     <g id="text_1">
      <!-- 1970 -->
      <g style="fill: #4d4d4d" transform="translate(48.817222 300.658)rotate(-90)scale(0.088 -0.088)">
       <defs>
        <path id="DejaVuSans-31" d="M 794 531 
L 1825 531 
L 1825 4091 
L 703 3866 
L 703 4441 
L 1819 4666 
L 2450 4666 
L 2450 531 
L 3481 531 
L 3481 0 
L 794 0 
L 794 531 
z
" transform="scale(0.015625)"/>
        <path id="DejaVuSans-39" d="M 703 97 
L 703 672 
Q 941 559 1184 500 
Q 1428 441 1663 441 
Q 2288 441 2617 861 
Q 2947 1281 2994 2138 
Q 2813 1869 2534 1725 
Q 2256 1581 1919 1581 
Q 1219 1581 811 2004 
Q 403 2428 403 3163 
Q 403 3881 828 4315 
Q 1253 4750 1959 4750 
Q 2769 4750 3195 4129 
Q 3622 3509 3622 2328 
Q 3622 1225 3098 567 
Q 2575 -91 1691 -91 
Q 1453 -91 1209 -44 
Q 966 3 703 97 
z
M 1959 2075 
Q 2384 2075 2632 2365 
Q 2881 2656 2881 3163 
Q 2881 3666 2632 3958 
Q 2384 4250 1959 4250 
Q 1534 4250 1286 3958 
Q 1038 3666 1038 3163 
Q 1038 2656 1286 2365 
Q 1534 2075 1959 2075 
z
" transform="scale(0.015625)"/>
        <path id="DejaVuSans-37" d="M 525 4666 
L 3525 4666 
L 3525 4397 
L 1831 0 
L 1172 0 
L 2766 4134 
L 525 4134 
L 525 4666 
z
" transform="scale(0.015625)"/>
        <path id="DejaVuSans-30" d="M 2034 4250 
Q 1547 4250 1301 3770 
Q 1056 3291 1056 2328 
Q 1056 1369 1301 889 
Q 1547 409 2034 409 
Q 2525 409 2770 889 
Q 3016 1369 3016 2328 
Q 3016 3291 2770 3770 
Q 2525 4250 2034 4250 
z
M 2034 4750 
Q 2819 4750 3233 4129 
Q 3647 3509 3647 2328 
Q 3647 1150 3233 529 
Q 2819 -91 2034 -91 
Q 1250 -91 836 529 
Q 422 1150 422 2328 
Q 422 3509 836 4129 
Q 1250 4750 2034 4750 
z
" transform="scale(0.015625)"/>
       </defs>
       <use xlink:href="#DejaVuSans-31"/>
       <use xlink:href="#DejaVuSans-39" x="63.623047"/>
       <use xlink:href="#DejaVuSans-37" x="127.246094"/>
       <use xlink:href="#DejaVuSans-30" x="190.869141"/>
      </g>
     </g>
    </g>
    <g id="xtick_2">
     <g id="line2d_2">
      <path d="M 61.738031 273.312 
" style="fill: none; stroke: #000000; stroke-width: 1.5"/>
      <g>
       <use xlink:href="#m5087504066" x="61.738031" y="273.312" style="stroke: #333333"/>
      </g>
     </g>
     <g id="text_2">
      <!-- 1972 -->
      <g style="fill: #4d4d4d" transform="translate(59.907906 300.658)rotate(-90)scale(0.088 -0.088)">
       <defs>
        <path id="DejaVuSans-32" d="M 1228 531 
L 3431 531 
L 3431 0 
L 469 0 
L 469 531 
Q 828 903 1448 1529 
Q 2069 2156 2228 2338 
Q 2531 2678 2651 2914 
Q 2772 3150 2772 3378 
Q 2772 3750 2511 3984 
Q 2250 4219 1831 4219 
Q 1534 4219 1204 4116 
Q 875 4013 500 3803 
L 500 4441 
Q 881 4594 1212 4672 
Q 1544 4750 1819 4750 
Q 2544 4750 2975 4387 
Q 3406 4025 3406 3419 
Q 3406 3131 3298 2873 
Q 3191 2616 2906 2266 
Q 2828 2175 2409 1742 
Q 1991 1309 1228 531 
z
" transform="scale(0.015625)"/>
       </defs>
       <use xlink:href="#DejaVuSans-31"/>
       <use xlink:href="#DejaVuSans-39" x="63.623047"/>
       <use xlink:href="#DejaVuSans-37" x="127.246094"/>
       <use xlink:href="#DejaVuSans-32" x="190.869141"/>
      </g>
     </g>
    </g>
    <g id="xtick_3">
     <g id="line2d_3">
      <path d="M 72.828714 273.312 
" style="fill: none; stroke: #000000; stroke-width: 1.5"/>
      <g>
       <use xlink:href="#m5087504066" x="72.828714" y="273.312" style="stroke: #333333"/>
      </g>
     </g>
     <g id="text_3">
      <!-- 1994 -->
      <g style="fill: #4d4d4d" transform="translate(70.998589 300.658)rotate(-90)scale(0.088 -0.088)">
       <defs>
        <path id="DejaVuSans-34" d="M 2419 4116 
L 825 1625 
L 2419 1625 
L 2419 4116 
z
M 2253 4666 
L 3047 4666 
L 3047 1625 
L 3713 1625 
L 3713 1100 
L 3047 1100 
L 3047 0 
L 2419 0 
L 2419 1100 
L 313 1100 
L 313 1709 
L 2253 4666 
z
" transform="scale(0.015625)"/>
       </defs>
       <use xlink:href="#DejaVuSans-31"/>
       <use xlink:href="#DejaVuSans-39" x="63.623047"/>
       <use xlink:href="#DejaVuSans-39" x="127.246094"/>
       <use xlink:href="#DejaVuSans-34" x="190.869141"/>
      </g>
     </g>
    </g>
    <g id="xtick_4">
     <g id="line2d_4">
      <path d="M 83.919397 273.312 
" style="fill: none; stroke: #000000; stroke-width: 1.5"/>
      <g>
       <use xlink:href="#m5087504066" x="83.919397" y="273.312" style="stroke: #333333"/>
      </g>
     </g>
     <g id="text_4">
      <!-- 1995 -->
      <g style="fill: #4d4d4d" transform="translate(82.089272 300.658)rotate(-90)scale(0.088 -0.088)">
       <defs>
        <path id="DejaVuSans-35" d="M 691 4666 
L 3169 4666 
L 3169 4134 
L 1269 4134 
L 1269 2991 
Q 1406 3038 1543 3061 
Q 1681 3084 1819 3084 
Q 2600 3084 3056 2656 
Q 3513 2228 3513 1497 
Q 3513 744 3044 326 
Q 2575 -91 1722 -91 
Q 1428 -91 1123 -41 
Q 819 9 494 109 
L 494 744 
Q 775 591 1075 516 
Q 1375 441 1709 441 
Q 2250 441 2565 725 
Q 2881 1009 2881 1497 
Q 2881 1984 2565 2268 
Q 2250 2553 1709 2553 
Q 1456 2553 1204 2497 
Q 953 2441 691 2322 
L 691 4666 
z
" transform="scale(0.015625)"/>
       </defs>
       <use xlink:href="#DejaVuSans-31"/>
       <use xlink:href="#DejaVuSans-39" x="63.623047"/>
       <use xlink:href="#DejaVuSans-39" x="127.246094"/>
       <use xlink:href="#DejaVuSans-35" x="190.869141"/>
      </g>
     </g>
    </g>
    <g id="xtick_5">
     <g id="line2d_5">
      <path d="M 95.01008 273.312 
" style="fill: none; stroke: #000000; stroke-width: 1.5"/>
      <g>
       <use xlink:href="#m5087504066" x="95.01008" y="273.312" style="stroke: #333333"/>
      </g>
     </g>
     <g id="text_5">
      <!-- 1997 -->
      <g style="fill: #4d4d4d" transform="translate(93.179955 300.658)rotate(-90)scale(0.088 -0.088)">
       <use xlink:href="#DejaVuSans-31"/>
       <use xlink:href="#DejaVuSans-39" x="63.623047"/>
       <use xlink:href="#DejaVuSans-39" x="127.246094"/>
       <use xlink:href="#DejaVuSans-37" x="190.869141"/>
      </g>
     </g>
    </g>
    <g id="xtick_6">
     <g id="line2d_6">
      <path d="M 106.100764 273.312 
" style="fill: none; stroke: #000000; stroke-width: 1.5"/>
      <g>
       <use xlink:href="#m5087504066" x="106.100764" y="273.312" style="stroke: #333333"/>
      </g>
     </g>
     <g id="text_6">
      <!-- 1998 -->
      <g style="fill: #4d4d4d" transform="translate(104.270639 300.658)rotate(-90)scale(0.088 -0.088)">
       <defs>
        <path id="DejaVuSans-38" d="M 2034 2216 
Q 1584 2216 1326 1975 
Q 1069 1734 1069 1313 
Q 1069 891 1326 650 
Q 1584 409 2034 409 
Q 2484 409 2743 651 
Q 3003 894 3003 1313 
Q 3003 1734 2745 1975 
Q 2488 2216 2034 2216 
z
M 1403 2484 
Q 997 2584 770 2862 
Q 544 3141 544 3541 
Q 544 4100 942 4425 
Q 1341 4750 2034 4750 
Q 2731 4750 3128 4425 
Q 3525 4100 3525 3541 
Q 3525 3141 3298 2862 
Q 3072 2584 2669 2484 
Q 3125 2378 3379 2068 
Q 3634 1759 3634 1313 
Q 3634 634 3220 271 
Q 2806 -91 2034 -91 
Q 1263 -91 848 271 
Q 434 634 434 1313 
Q 434 1759 690 2068 
Q 947 2378 1403 2484 
z
M 1172 3481 
Q 1172 3119 1398 2916 
Q 1625 2713 2034 2713 
Q 2441 2713 2670 2916 
Q 2900 3119 2900 3481 
Q 2900 3844 2670 4047 
Q 2441 4250 2034 4250 
Q 1625 4250 1398 4047 
Q 1172 3844 1172 3481 
z
" transform="scale(0.015625)"/>
       </defs>
       <use xlink:href="#DejaVuSans-31"/>
       <use xlink:href="#DejaVuSans-39" x="63.623047"/>
       <use xlink:href="#DejaVuSans-39" x="127.246094"/>
       <use xlink:href="#DejaVuSans-38" x="190.869141"/>
      </g>
     </g>
    </g>
    <g id="xtick_7">
     <g id="line2d_7">
      <path d="M 117.191447 273.312 
" style="fill: none; stroke: #000000; stroke-width: 1.5"/>
      <g>
       <use xlink:href="#m5087504066" x="117.191447" y="273.312" style="stroke: #333333"/>
      </g>
     </g>
     <g id="text_7">
      <!-- 1999 -->
      <g style="fill: #4d4d4d" transform="translate(115.361322 300.658)rotate(-90)scale(0.088 -0.088)">
       <use xlink:href="#DejaVuSans-31"/>
       <use xlink:href="#DejaVuSans-39" x="63.623047"/>
       <use xlink:href="#DejaVuSans-39" x="127.246094"/>
       <use xlink:href="#DejaVuSans-39" x="190.869141"/>
      </g>
     </g>
    </g>
    <g id="xtick_8">
     <g id="line2d_8">
      <path d="M 128.28213 273.312 
" style="fill: none; stroke: #000000; stroke-width: 1.5"/>
      <g>
       <use xlink:href="#m5087504066" x="128.28213" y="273.312" style="stroke: #333333"/>
      </g>
     </g>
     <g id="text_8">
      <!-- 2000 -->
      <g style="fill: #4d4d4d" transform="translate(126.452005 300.658)rotate(-90)scale(0.088 -0.088)">
       <use xlink:href="#DejaVuSans-32"/>
       <use xlink:href="#DejaVuSans-30" x="63.623047"/>
       <use xlink:href="#DejaVuSans-30" x="127.246094"/>
       <use xlink:href="#DejaVuSans-30" x="190.869141"/>
      </g>
     </g>
    </g>
    <g id="xtick_9">
     <g id="line2d_9">
      <path d="M 139.372813 273.312 
" style="fill: none; stroke: #000000; stroke-width: 1.5"/>
      <g>
       <use xlink:href="#m5087504066" x="139.372813" y="273.312" style="stroke: #333333"/>
      </g>
     </g>
     <g id="text_9">
      <!-- 2001 -->
      <g style="fill: #4d4d4d" transform="translate(137.542688 300.658)rotate(-90)scale(0.088 -0.088)">
       <use xlink:href="#DejaVuSans-32"/>
       <use xlink:href="#DejaVuSans-30" x="63.623047"/>
       <use xlink:href="#DejaVuSans-30" x="127.246094"/>
       <use xlink:href="#DejaVuSans-31" x="190.869141"/>
      </g>
     </g>
    </g>
    <g id="xtick_10">
     <g id="line2d_10">
      <path d="M 150.463497 273.312 
" style="fill: none; stroke: #000000; stroke-width: 1.5"/>
      <g>
       <use xlink:href="#m5087504066" x="150.463497" y="273.312" style="stroke: #333333"/>
      </g>
     </g>
     <g id="text_10">
      <!-- 2002 -->
      <g style="fill: #4d4d4d" transform="translate(148.633372 300.658)rotate(-90)scale(0.088 -0.088)">
       <use xlink:href="#DejaVuSans-32"/>
       <use xlink:href="#DejaVuSans-30" x="63.623047"/>
       <use xlink:href="#DejaVuSans-30" x="127.246094"/>
       <use xlink:href="#DejaVuSans-32" x="190.869141"/>
      </g>
     </g>
    </g>
    <g id="xtick_11">
     <g id="line2d_11">
      <path d="M 161.55418 273.312 
" style="fill: none; stroke: #000000; stroke-width: 1.5"/>
      <g>
       <use xlink:href="#m5087504066" x="161.55418" y="273.312" style="stroke: #333333"/>
      </g>
     </g>
     <g id="text_11">
      <!-- 2003 -->
      <g style="fill: #4d4d4d" transform="translate(159.724055 300.658)rotate(-90)scale(0.088 -0.088)">
       <defs>
        <path id="DejaVuSans-33" d="M 2597 2516 
Q 3050 2419 3304 2112 
Q 3559 1806 3559 1356 
Q 3559 666 3084 287 
Q 2609 -91 1734 -91 
Q 1441 -91 1130 -33 
Q 819 25 488 141 
L 488 750 
Q 750 597 1062 519 
Q 1375 441 1716 441 
Q 2309 441 2620 675 
Q 2931 909 2931 1356 
Q 2931 1769 2642 2001 
Q 2353 2234 1838 2234 
L 1294 2234 
L 1294 2753 
L 1863 2753 
Q 2328 2753 2575 2939 
Q 2822 3125 2822 3475 
Q 2822 3834 2567 4026 
Q 2313 4219 1838 4219 
Q 1578 4219 1281 4162 
Q 984 4106 628 3988 
L 628 4550 
Q 988 4650 1302 4700 
Q 1616 4750 1894 4750 
Q 2613 4750 3031 4423 
Q 3450 4097 3450 3541 
Q 3450 3153 3228 2886 
Q 3006 2619 2597 2516 
z
" transform="scale(0.015625)"/>
       </defs>
       <use xlink:href="#DejaVuSans-32"/>
       <use xlink:href="#DejaVuSans-30" x="63.623047"/>
       <use xlink:href="#DejaVuSans-30" x="127.246094"/>
       <use xlink:href="#DejaVuSans-33" x="190.869141"/>
      </g>
     </g>
    </g>
    <g id="xtick_12">
     <g id="line2d_12">
      <path d="M 172.644863 273.312 
" style="fill: none; stroke: #000000; stroke-width: 1.5"/>
      <g>
       <use xlink:href="#m5087504066" x="172.644863" y="273.312" style="stroke: #333333"/>
      </g>
     </g>
     <g id="text_12">
      <!-- 2004 -->
      <g style="fill: #4d4d4d" transform="translate(170.814738 300.658)rotate(-90)scale(0.088 -0.088)">
       <use xlink:href="#DejaVuSans-32"/>
       <use xlink:href="#DejaVuSans-30" x="63.623047"/>
       <use xlink:href="#DejaVuSans-30" x="127.246094"/>
       <use xlink:href="#DejaVuSans-34" x="190.869141"/>
      </g>
     </g>
    </g>
    <g id="xtick_13">
     <g id="line2d_13">
      <path d="M 183.735546 273.312 
" style="fill: none; stroke: #000000; stroke-width: 1.5"/>
      <g>
       <use xlink:href="#m5087504066" x="183.735546" y="273.312" style="stroke: #333333"/>
      </g>
     </g>
     <g id="text_13">
      <!-- 2005 -->
      <g style="fill: #4d4d4d" transform="translate(181.905421 300.658)rotate(-90)scale(0.088 -0.088)">
       <use xlink:href="#DejaVuSans-32"/>
       <use xlink:href="#DejaVuSans-30" x="63.623047"/>
       <use xlink:href="#DejaVuSans-30" x="127.246094"/>
       <use xlink:href="#DejaVuSans-35" x="190.869141"/>
      </g>
     </g>
    </g>
    <g id="xtick_14">
     <g id="line2d_14">
      <path d="M 194.826229 273.312 
" style="fill: none; stroke: #000000; stroke-width: 1.5"/>
      <g>
       <use xlink:href="#m5087504066" x="194.826229" y="273.312" style="stroke: #333333"/>
      </g>
     </g>
     <g id="text_14">
      <!-- 2006 -->
      <g style="fill: #4d4d4d" transform="translate(192.996104 300.658)rotate(-90)scale(0.088 -0.088)">
       <defs>
        <path id="DejaVuSans-36" d="M 2113 2584 
Q 1688 2584 1439 2293 
Q 1191 2003 1191 1497 
Q 1191 994 1439 701 
Q 1688 409 2113 409 
Q 2538 409 2786 701 
Q 3034 994 3034 1497 
Q 3034 2003 2786 2293 
Q 2538 2584 2113 2584 
z
M 3366 4563 
L 3366 3988 
Q 3128 4100 2886 4159 
Q 2644 4219 2406 4219 
Q 1781 4219 1451 3797 
Q 1122 3375 1075 2522 
Q 1259 2794 1537 2939 
Q 1816 3084 2150 3084 
Q 2853 3084 3261 2657 
Q 3669 2231 3669 1497 
Q 3669 778 3244 343 
Q 2819 -91 2113 -91 
Q 1303 -91 875 529 
Q 447 1150 447 2328 
Q 447 3434 972 4092 
Q 1497 4750 2381 4750 
Q 2619 4750 2861 4703 
Q 3103 4656 3366 4563 
z
" transform="scale(0.015625)"/>
       </defs>
       <use xlink:href="#DejaVuSans-32"/>
       <use xlink:href="#DejaVuSans-30" x="63.623047"/>
       <use xlink:href="#DejaVuSans-30" x="127.246094"/>
       <use xlink:href="#DejaVuSans-36" x="190.869141"/>
      </g>
     </g>
    </g>
    <g id="xtick_15">
     <g id="line2d_15">
      <path d="M 205.916913 273.312 
" style="fill: none; stroke: #000000; stroke-width: 1.5"/>
      <g>
       <use xlink:href="#m5087504066" x="205.916913" y="273.312" style="stroke: #333333"/>
      </g>
     </g>
     <g id="text_15">
      <!-- 2007 -->
      <g style="fill: #4d4d4d" transform="translate(204.086788 300.658)rotate(-90)scale(0.088 -0.088)">
       <use xlink:href="#DejaVuSans-32"/>
       <use xlink:href="#DejaVuSans-30" x="63.623047"/>
       <use xlink:href="#DejaVuSans-30" x="127.246094"/>
       <use xlink:href="#DejaVuSans-37" x="190.869141"/>
      </g>
     </g>
    </g>
    <g id="xtick_16">
     <g id="line2d_16">
      <path d="M 217.007596 273.312 
" style="fill: none; stroke: #000000; stroke-width: 1.5"/>
      <g>
       <use xlink:href="#m5087504066" x="217.007596" y="273.312" style="stroke: #333333"/>
      </g>
     </g>
     <g id="text_16">
      <!-- 2008 -->
      <g style="fill: #4d4d4d" transform="translate(215.177471 300.658)rotate(-90)scale(0.088 -0.088)">
       <use xlink:href="#DejaVuSans-32"/>
       <use xlink:href="#DejaVuSans-30" x="63.623047"/>
       <use xlink:href="#DejaVuSans-30" x="127.246094"/>
       <use xlink:href="#DejaVuSans-38" x="190.869141"/>
      </g>
     </g>
    </g>
    <g id="xtick_17">
     <g id="line2d_17">
      <path d="M 228.098279 273.312 
" style="fill: none; stroke: #000000; stroke-width: 1.5"/>
      <g>
       <use xlink:href="#m5087504066" x="228.098279" y="273.312" style="stroke: #333333"/>
      </g>
     </g>
     <g id="text_17">
      <!-- 2009 -->
      <g style="fill: #4d4d4d" transform="translate(226.268154 300.658)rotate(-90)scale(0.088 -0.088)">
       <use xlink:href="#DejaVuSans-32"/>
       <use xlink:href="#DejaVuSans-30" x="63.623047"/>
       <use xlink:href="#DejaVuSans-30" x="127.246094"/>
       <use xlink:href="#DejaVuSans-39" x="190.869141"/>
      </g>
     </g>
    </g>
    <g id="xtick_18">
     <g id="line2d_18">
      <path d="M 239.188962 273.312 
" style="fill: none; stroke: #000000; stroke-width: 1.5"/>
      <g>
       <use xlink:href="#m5087504066" x="239.188962" y="273.312" style="stroke: #333333"/>
      </g>
     </g>
     <g id="text_18">
      <!-- 2010 -->
      <g style="fill: #4d4d4d" transform="translate(237.358837 300.658)rotate(-90)scale(0.088 -0.088)">
       <use xlink:href="#DejaVuSans-32"/>
       <use xlink:href="#DejaVuSans-30" x="63.623047"/>
       <use xlink:href="#DejaVuSans-31" x="127.246094"/>
       <use xlink:href="#DejaVuSans-30" x="190.869141"/>
      </g>
     </g>
    </g>
    <g id="xtick_19">
     <g id="line2d_19">
      <path d="M 250.279646 273.312 
" style="fill: none; stroke: #000000; stroke-width: 1.5"/>
      <g>
       <use xlink:href="#m5087504066" x="250.279646" y="273.312" style="stroke: #333333"/>
      </g>
     </g>
     <g id="text_19">
      <!-- 2011 -->
      <g style="fill: #4d4d4d" transform="translate(248.449521 300.658)rotate(-90)scale(0.088 -0.088)">
       <use xlink:href="#DejaVuSans-32"/>
       <use xlink:href="#DejaVuSans-30" x="63.623047"/>
       <use xlink:href="#DejaVuSans-31" x="127.246094"/>
       <use xlink:href="#DejaVuSans-31" x="190.869141"/>
      </g>
     </g>
    </g>
    <g id="xtick_20">
     <g id="line2d_20">
      <path d="M 261.370329 273.312 
" style="fill: none; stroke: #000000; stroke-width: 1.5"/>
      <g>
       <use xlink:href="#m5087504066" x="261.370329" y="273.312" style="stroke: #333333"/>
      </g>
     </g>
     <g id="text_20">
      <!-- 2012 -->
      <g style="fill: #4d4d4d" transform="translate(259.540204 300.658)rotate(-90)scale(0.088 -0.088)">
       <use xlink:href="#DejaVuSans-32"/>
       <use xlink:href="#DejaVuSans-30" x="63.623047"/>
       <use xlink:href="#DejaVuSans-31" x="127.246094"/>
       <use xlink:href="#DejaVuSans-32" x="190.869141"/>
      </g>
     </g>
    </g>
    <g id="xtick_21">
     <g id="line2d_21">
      <path d="M 272.461012 273.312 
" style="fill: none; stroke: #000000; stroke-width: 1.5"/>
      <g>
       <use xlink:href="#m5087504066" x="272.461012" y="273.312" style="stroke: #333333"/>
      </g>
     </g>
     <g id="text_21">
      <!-- 2013 -->
      <g style="fill: #4d4d4d" transform="translate(270.630887 300.658)rotate(-90)scale(0.088 -0.088)">
       <use xlink:href="#DejaVuSans-32"/>
       <use xlink:href="#DejaVuSans-30" x="63.623047"/>
       <use xlink:href="#DejaVuSans-31" x="127.246094"/>
       <use xlink:href="#DejaVuSans-33" x="190.869141"/>
      </g>
     </g>
    </g>
    <g id="xtick_22">
     <g id="line2d_22">
      <path d="M 283.551695 273.312 
" style="fill: none; stroke: #000000; stroke-width: 1.5"/>
      <g>
       <use xlink:href="#m5087504066" x="283.551695" y="273.312" style="stroke: #333333"/>
      </g>
     </g>
     <g id="text_22">
      <!-- 2014 -->
      <g style="fill: #4d4d4d" transform="translate(281.72157 300.658)rotate(-90)scale(0.088 -0.088)">
       <use xlink:href="#DejaVuSans-32"/>
       <use xlink:href="#DejaVuSans-30" x="63.623047"/>
       <use xlink:href="#DejaVuSans-31" x="127.246094"/>
       <use xlink:href="#DejaVuSans-34" x="190.869141"/>
      </g>
     </g>
    </g>
    <g id="xtick_23">
     <g id="line2d_23">
      <path d="M 294.642378 273.312 
" style="fill: none; stroke: #000000; stroke-width: 1.5"/>
      <g>
       <use xlink:href="#m5087504066" x="294.642378" y="273.312" style="stroke: #333333"/>
      </g>
     </g>
     <g id="text_23">
      <!-- 2015 -->
      <g style="fill: #4d4d4d" transform="translate(292.812253 300.658)rotate(-90)scale(0.088 -0.088)">
       <use xlink:href="#DejaVuSans-32"/>
       <use xlink:href="#DejaVuSans-30" x="63.623047"/>
       <use xlink:href="#DejaVuSans-31" x="127.246094"/>
       <use xlink:href="#DejaVuSans-35" x="190.869141"/>
      </g>
     </g>
    </g>
    <g id="xtick_24">
     <g id="line2d_24">
      <path d="M 305.733062 273.312 
" style="fill: none; stroke: #000000; stroke-width: 1.5"/>
      <g>
       <use xlink:href="#m5087504066" x="305.733062" y="273.312" style="stroke: #333333"/>
      </g>
     </g>
     <g id="text_24">
      <!-- 2016 -->
      <g style="fill: #4d4d4d" transform="translate(303.902937 300.658)rotate(-90)scale(0.088 -0.088)">
       <use xlink:href="#DejaVuSans-32"/>
       <use xlink:href="#DejaVuSans-30" x="63.623047"/>
       <use xlink:href="#DejaVuSans-31" x="127.246094"/>
       <use xlink:href="#DejaVuSans-36" x="190.869141"/>
      </g>
     </g>
    </g>
    <g id="xtick_25">
     <g id="line2d_25">
      <path d="M 316.823745 273.312 
" style="fill: none; stroke: #000000; stroke-width: 1.5"/>
      <g>
       <use xlink:href="#m5087504066" x="316.823745" y="273.312" style="stroke: #333333"/>
      </g>
     </g>
     <g id="text_25">
      <!-- 2017 -->
      <g style="fill: #4d4d4d" transform="translate(314.99362 300.658)rotate(-90)scale(0.088 -0.088)">
       <use xlink:href="#DejaVuSans-32"/>
       <use xlink:href="#DejaVuSans-30" x="63.623047"/>
       <use xlink:href="#DejaVuSans-31" x="127.246094"/>
       <use xlink:href="#DejaVuSans-37" x="190.869141"/>
      </g>
     </g>
    </g>
    <g id="xtick_26">
     <g id="line2d_26">
      <path d="M 327.914428 273.312 
" style="fill: none; stroke: #000000; stroke-width: 1.5"/>
      <g>
       <use xlink:href="#m5087504066" x="327.914428" y="273.312" style="stroke: #333333"/>
      </g>
     </g>
     <g id="text_26">
      <!-- 2018 -->
      <g style="fill: #4d4d4d" transform="translate(326.084303 300.658)rotate(-90)scale(0.088 -0.088)">
       <use xlink:href="#DejaVuSans-32"/>
       <use xlink:href="#DejaVuSans-30" x="63.623047"/>
       <use xlink:href="#DejaVuSans-31" x="127.246094"/>
       <use xlink:href="#DejaVuSans-38" x="190.869141"/>
      </g>
     </g>
    </g>
    <g id="xtick_27">
     <g id="line2d_27">
      <path d="M 339.005111 273.312 
" style="fill: none; stroke: #000000; stroke-width: 1.5"/>
      <g>
       <use xlink:href="#m5087504066" x="339.005111" y="273.312" style="stroke: #333333"/>
      </g>
     </g>
     <g id="text_27">
      <!-- 2019 -->
      <g style="fill: #4d4d4d" transform="translate(337.174986 300.658)rotate(-90)scale(0.088 -0.088)">
       <use xlink:href="#DejaVuSans-32"/>
       <use xlink:href="#DejaVuSans-30" x="63.623047"/>
       <use xlink:href="#DejaVuSans-31" x="127.246094"/>
       <use xlink:href="#DejaVuSans-39" x="190.869141"/>
      </g>
     </g>
    </g>
    <g id="xtick_28">
     <g id="line2d_28">
      <path d="M 350.095795 273.312 
" style="fill: none; stroke: #000000; stroke-width: 1.5"/>
      <g>
       <use xlink:href="#m5087504066" x="350.095795" y="273.312" style="stroke: #333333"/>
      </g>
     </g>
     <g id="text_28">
      <!-- 2020 -->
      <g style="fill: #4d4d4d" transform="translate(348.26567 300.658)rotate(-90)scale(0.088 -0.088)">
       <use xlink:href="#DejaVuSans-32"/>
       <use xlink:href="#DejaVuSans-30" x="63.623047"/>
       <use xlink:href="#DejaVuSans-32" x="127.246094"/>
       <use xlink:href="#DejaVuSans-30" x="190.869141"/>
      </g>
     </g>
    </g>
    <g id="xtick_29">
     <g id="line2d_29">
      <path d="M 361.186478 273.312 
" style="fill: none; stroke: #000000; stroke-width: 1.5"/>
      <g>
       <use xlink:href="#m5087504066" x="361.186478" y="273.312" style="stroke: #333333"/>
      </g>
     </g>
     <g id="text_29">
      <!-- 2021 -->
      <g style="fill: #4d4d4d" transform="translate(359.356353 300.658)rotate(-90)scale(0.088 -0.088)">
       <use xlink:href="#DejaVuSans-32"/>
       <use xlink:href="#DejaVuSans-30" x="63.623047"/>
       <use xlink:href="#DejaVuSans-32" x="127.246094"/>
       <use xlink:href="#DejaVuSans-31" x="190.869141"/>
      </g>
     </g>
    </g>
    <g id="xtick_30">
     <g id="line2d_30">
      <path d="M 372.277161 273.312 
" style="fill: none; stroke: #000000; stroke-width: 1.5"/>
      <g>
       <use xlink:href="#m5087504066" x="372.277161" y="273.312" style="stroke: #333333"/>
      </g>
     </g>
     <g id="text_30">
      <!-- 2022 -->
      <g style="fill: #4d4d4d" transform="translate(370.447036 300.658)rotate(-90)scale(0.088 -0.088)">
       <use xlink:href="#DejaVuSans-32"/>
       <use xlink:href="#DejaVuSans-30" x="63.623047"/>
       <use xlink:href="#DejaVuSans-32" x="127.246094"/>
       <use xlink:href="#DejaVuSans-32" x="190.869141"/>
      </g>
     </g>
    </g>
    <g id="xtick_31">
     <g id="line2d_31">
      <path d="M 383.367844 273.312 
" style="fill: none; stroke: #000000; stroke-width: 1.5"/>
      <g>
       <use xlink:href="#m5087504066" x="383.367844" y="273.312" style="stroke: #333333"/>
      </g>
     </g>
     <g id="text_31">
      <!-- 2023 -->
      <g style="fill: #4d4d4d" transform="translate(381.537719 300.658)rotate(-90)scale(0.088 -0.088)">
       <use xlink:href="#DejaVuSans-32"/>
       <use xlink:href="#DejaVuSans-30" x="63.623047"/>
       <use xlink:href="#DejaVuSans-32" x="127.246094"/>
       <use xlink:href="#DejaVuSans-33" x="190.869141"/>
      </g>
     </g>
    </g>
    <g id="xtick_32">
     <g id="line2d_32">
      <path d="M 394.458528 273.312 
" style="fill: none; stroke: #000000; stroke-width: 1.5"/>
      <g>
       <use xlink:href="#m5087504066" x="394.458528" y="273.312" style="stroke: #333333"/>
      </g>
     </g>
     <g id="text_32">
      <!-- 2024 -->
      <g style="fill: #4d4d4d" transform="translate(392.628403 300.658)rotate(-90)scale(0.088 -0.088)">
       <use xlink:href="#DejaVuSans-32"/>
       <use xlink:href="#DejaVuSans-30" x="63.623047"/>
       <use xlink:href="#DejaVuSans-32" x="127.246094"/>
       <use xlink:href="#DejaVuSans-34" x="190.869141"/>
      </g>
     </g>
    </g>
    <g id="text_33">
     <!-- Year -->
     <g transform="translate(205.146688 313.416281)scale(0.11 -0.11)">
      <defs>
       <path id="DejaVuSans-59" d="M -13 4666 
L 666 4666 
L 1959 2747 
L 3244 4666 
L 3922 4666 
L 2272 2222 
L 2272 0 
L 1638 0 
L 1638 2222 
L -13 4666 
z
" transform="scale(0.015625)"/>
       <path id="DejaVuSans-65" d="M 3597 1894 
L 3597 1613 
L 953 1613 
Q 991 1019 1311 708 
Q 1631 397 2203 397 
Q 2534 397 2845 478 
Q 3156 559 3463 722 
L 3463 178 
Q 3153 47 2828 -22 
Q 2503 -91 2169 -91 
Q 1331 -91 842 396 
Q 353 884 353 1716 
Q 353 2575 817 3079 
Q 1281 3584 2069 3584 
Q 2775 3584 3186 3129 
Q 3597 2675 3597 1894 
z
M 3022 2063 
Q 3016 2534 2758 2815 
Q 2500 3097 2075 3097 
Q 1594 3097 1305 2825 
Q 1016 2553 972 2059 
L 3022 2063 
z
" transform="scale(0.015625)"/>
       <path id="DejaVuSans-61" d="M 2194 1759 
Q 1497 1759 1228 1600 
Q 959 1441 959 1056 
Q 959 750 1161 570 
Q 1363 391 1709 391 
Q 2188 391 2477 730 
Q 2766 1069 2766 1631 
L 2766 1759 
L 2194 1759 
z
M 3341 1997 
L 3341 0 
L 2766 0 
L 2766 531 
Q 2569 213 2275 61 
Q 1981 -91 1556 -91 
Q 1019 -91 701 211 
Q 384 513 384 1019 
Q 384 1609 779 1909 
Q 1175 2209 1959 2209 
L 2766 2209 
L 2766 2266 
Q 2766 2663 2505 2880 
Q 2244 3097 1772 3097 
Q 1472 3097 1187 3025 
Q 903 2953 641 2809 
L 641 3341 
Q 956 3463 1253 3523 
Q 1550 3584 1831 3584 
Q 2591 3584 2966 3190 
Q 3341 2797 3341 1997 
z
" transform="scale(0.015625)"/>
       <path id="DejaVuSans-72" d="M 2631 2963 
Q 2534 3019 2420 3045 
Q 2306 3072 2169 3072 
Q 1681 3072 1420 2755 
Q 1159 2438 1159 1844 
L 1159 0 
L 581 0 
L 581 3500 
L 1159 3500 
L 1159 2956 
Q 1341 3275 1631 3429 
Q 1922 3584 2338 3584 
Q 2397 3584 2469 3576 
Q 2541 3569 2628 3553 
L 2631 2963 
z
" transform="scale(0.015625)"/>
      </defs>
      <use xlink:href="#DejaVuSans-59"/>
      <use xlink:href="#DejaVuSans-65" x="47.833984"/>
      <use xlink:href="#DejaVuSans-61" x="109.357422"/>
      <use xlink:href="#DejaVuSans-72" x="170.636719"/>
     </g>
    </g>
   </g>
   <g id="matplotlib.axis_2">
    <g id="ytick_1">
     <g id="line2d_33">
      <path d="M 43.992938 261.216 
" style="fill: none; stroke: #000000; stroke-width: 1.5"/>
      <defs>
       <path id="mf0b62782a0" d="M 0 0 
L -2.75 0 
" style="stroke: #333333"/>
      </defs>
      <g>
       <use xlink:href="#mf0b62782a0" x="43.992938" y="261.216" style="stroke: #333333"/>
      </g>
     </g>
     <g id="text_34">
      <!-- 0 -->
      <g style="fill: #4d4d4d" transform="translate(33.443938 263.64425)scale(0.088 -0.088)">
       <use xlink:href="#DejaVuSans-30"/>
      </g>
     </g>
    </g>
    <g id="ytick_2">
     <g id="line2d_34">
      <path d="M 43.992938 209.961763 
" style="fill: none; stroke: #000000; stroke-width: 1.5"/>
      <g>
       <use xlink:href="#mf0b62782a0" x="43.992938" y="209.961763" style="stroke: #333333"/>
      </g>
     </g>
     <g id="text_35">
      <!-- 50 -->
      <g style="fill: #4d4d4d" transform="translate(27.844938 212.390013)scale(0.088 -0.088)">
       <use xlink:href="#DejaVuSans-35"/>
       <use xlink:href="#DejaVuSans-30" x="63.623047"/>
      </g>
     </g>
    </g>
    <g id="ytick_3">
     <g id="line2d_35">
      <path d="M 43.992938 158.707525 
" style="fill: none; stroke: #000000; stroke-width: 1.5"/>
      <g>
       <use xlink:href="#mf0b62782a0" x="43.992938" y="158.707525" style="stroke: #333333"/>
      </g>
     </g>
     <g id="text_36">
      <!-- 100 -->
      <g style="fill: #4d4d4d" transform="translate(22.245938 161.135775)scale(0.088 -0.088)">
       <use xlink:href="#DejaVuSans-31"/>
       <use xlink:href="#DejaVuSans-30" x="63.623047"/>
       <use xlink:href="#DejaVuSans-30" x="127.246094"/>
      </g>
     </g>
    </g>
    <g id="ytick_4">
     <g id="line2d_36">
      <path d="M 43.992938 107.453288 
" style="fill: none; stroke: #000000; stroke-width: 1.5"/>
      <g>
       <use xlink:href="#mf0b62782a0" x="43.992938" y="107.453288" style="stroke: #333333"/>
      </g>
     </g>
     <g id="text_37">
      <!-- 150 -->
      <g style="fill: #4d4d4d" transform="translate(22.245938 109.881538)scale(0.088 -0.088)">
       <use xlink:href="#DejaVuSans-31"/>
       <use xlink:href="#DejaVuSans-35" x="63.623047"/>
       <use xlink:href="#DejaVuSans-30" x="127.246094"/>
      </g>
     </g>
    </g>
    <g id="ytick_5">
     <g id="line2d_37">
      <path d="M 43.992938 56.199051 
" style="fill: none; stroke: #000000; stroke-width: 1.5"/>
      <g>
       <use xlink:href="#mf0b62782a0" x="43.992938" y="56.199051" style="stroke: #333333"/>
      </g>
     </g>
     <g id="text_38">
      <!-- 200 -->
      <g style="fill: #4d4d4d" transform="translate(22.245938 58.627301)scale(0.088 -0.088)">
       <use xlink:href="#DejaVuSans-32"/>
       <use xlink:href="#DejaVuSans-30" x="63.623047"/>
       <use xlink:href="#DejaVuSans-30" x="127.246094"/>
      </g>
     </g>
    </g>
    <g id="ytick_6"/>
    <g id="ytick_7"/>
    <g id="ytick_8"/>
    <g id="ytick_9"/>
    <g id="ytick_10"/>
    <g id="text_39">
     <!-- Count of Papers Published Per Year -->
     <g transform="translate(15.558281 234.232297)rotate(-90)scale(0.11 -0.11)">
      <defs>
       <path id="DejaVuSans-43" d="M 4122 4306 
L 4122 3641 
Q 3803 3938 3442 4084 
Q 3081 4231 2675 4231 
Q 1875 4231 1450 3742 
Q 1025 3253 1025 2328 
Q 1025 1406 1450 917 
Q 1875 428 2675 428 
Q 3081 428 3442 575 
Q 3803 722 4122 1019 
L 4122 359 
Q 3791 134 3420 21 
Q 3050 -91 2638 -91 
Q 1578 -91 968 557 
Q 359 1206 359 2328 
Q 359 3453 968 4101 
Q 1578 4750 2638 4750 
Q 3056 4750 3426 4639 
Q 3797 4528 4122 4306 
z
" transform="scale(0.015625)"/>
       <path id="DejaVuSans-6f" d="M 1959 3097 
Q 1497 3097 1228 2736 
Q 959 2375 959 1747 
Q 959 1119 1226 758 
Q 1494 397 1959 397 
Q 2419 397 2687 759 
Q 2956 1122 2956 1747 
Q 2956 2369 2687 2733 
Q 2419 3097 1959 3097 
z
M 1959 3584 
Q 2709 3584 3137 3096 
Q 3566 2609 3566 1747 
Q 3566 888 3137 398 
Q 2709 -91 1959 -91 
Q 1206 -91 779 398 
Q 353 888 353 1747 
Q 353 2609 779 3096 
Q 1206 3584 1959 3584 
z
" transform="scale(0.015625)"/>
       <path id="DejaVuSans-75" d="M 544 1381 
L 544 3500 
L 1119 3500 
L 1119 1403 
Q 1119 906 1312 657 
Q 1506 409 1894 409 
Q 2359 409 2629 706 
Q 2900 1003 2900 1516 
L 2900 3500 
L 3475 3500 
L 3475 0 
L 2900 0 
L 2900 538 
Q 2691 219 2414 64 
Q 2138 -91 1772 -91 
Q 1169 -91 856 284 
Q 544 659 544 1381 
z
M 1991 3584 
L 1991 3584 
z
" transform="scale(0.015625)"/>
       <path id="DejaVuSans-6e" d="M 3513 2113 
L 3513 0 
L 2938 0 
L 2938 2094 
Q 2938 2591 2744 2837 
Q 2550 3084 2163 3084 
Q 1697 3084 1428 2787 
Q 1159 2491 1159 1978 
L 1159 0 
L 581 0 
L 581 3500 
L 1159 3500 
L 1159 2956 
Q 1366 3272 1645 3428 
Q 1925 3584 2291 3584 
Q 2894 3584 3203 3211 
Q 3513 2838 3513 2113 
z
" transform="scale(0.015625)"/>
       <path id="DejaVuSans-74" d="M 1172 4494 
L 1172 3500 
L 2356 3500 
L 2356 3053 
L 1172 3053 
L 1172 1153 
Q 1172 725 1289 603 
Q 1406 481 1766 481 
L 2356 481 
L 2356 0 
L 1766 0 
Q 1100 0 847 248 
Q 594 497 594 1153 
L 594 3053 
L 172 3053 
L 172 3500 
L 594 3500 
L 594 4494 
L 1172 4494 
z
" transform="scale(0.015625)"/>
       <path id="DejaVuSans-20" transform="scale(0.015625)"/>
       <path id="DejaVuSans-66" d="M 2375 4863 
L 2375 4384 
L 1825 4384 
Q 1516 4384 1395 4259 
Q 1275 4134 1275 3809 
L 1275 3500 
L 2222 3500 
L 2222 3053 
L 1275 3053 
L 1275 0 
L 697 0 
L 697 3053 
L 147 3053 
L 147 3500 
L 697 3500 
L 697 3744 
Q 697 4328 969 4595 
Q 1241 4863 1831 4863 
L 2375 4863 
z
" transform="scale(0.015625)"/>
       <path id="DejaVuSans-50" d="M 1259 4147 
L 1259 2394 
L 2053 2394 
Q 2494 2394 2734 2622 
Q 2975 2850 2975 3272 
Q 2975 3691 2734 3919 
Q 2494 4147 2053 4147 
L 1259 4147 
z
M 628 4666 
L 2053 4666 
Q 2838 4666 3239 4311 
Q 3641 3956 3641 3272 
Q 3641 2581 3239 2228 
Q 2838 1875 2053 1875 
L 1259 1875 
L 1259 0 
L 628 0 
L 628 4666 
z
" transform="scale(0.015625)"/>
       <path id="DejaVuSans-70" d="M 1159 525 
L 1159 -1331 
L 581 -1331 
L 581 3500 
L 1159 3500 
L 1159 2969 
Q 1341 3281 1617 3432 
Q 1894 3584 2278 3584 
Q 2916 3584 3314 3078 
Q 3713 2572 3713 1747 
Q 3713 922 3314 415 
Q 2916 -91 2278 -91 
Q 1894 -91 1617 61 
Q 1341 213 1159 525 
z
M 3116 1747 
Q 3116 2381 2855 2742 
Q 2594 3103 2138 3103 
Q 1681 3103 1420 2742 
Q 1159 2381 1159 1747 
Q 1159 1113 1420 752 
Q 1681 391 2138 391 
Q 2594 391 2855 752 
Q 3116 1113 3116 1747 
z
" transform="scale(0.015625)"/>
       <path id="DejaVuSans-73" d="M 2834 3397 
L 2834 2853 
Q 2591 2978 2328 3040 
Q 2066 3103 1784 3103 
Q 1356 3103 1142 2972 
Q 928 2841 928 2578 
Q 928 2378 1081 2264 
Q 1234 2150 1697 2047 
L 1894 2003 
Q 2506 1872 2764 1633 
Q 3022 1394 3022 966 
Q 3022 478 2636 193 
Q 2250 -91 1575 -91 
Q 1294 -91 989 -36 
Q 684 19 347 128 
L 347 722 
Q 666 556 975 473 
Q 1284 391 1588 391 
Q 1994 391 2212 530 
Q 2431 669 2431 922 
Q 2431 1156 2273 1281 
Q 2116 1406 1581 1522 
L 1381 1569 
Q 847 1681 609 1914 
Q 372 2147 372 2553 
Q 372 3047 722 3315 
Q 1072 3584 1716 3584 
Q 2034 3584 2315 3537 
Q 2597 3491 2834 3397 
z
" transform="scale(0.015625)"/>
       <path id="DejaVuSans-62" d="M 3116 1747 
Q 3116 2381 2855 2742 
Q 2594 3103 2138 3103 
Q 1681 3103 1420 2742 
Q 1159 2381 1159 1747 
Q 1159 1113 1420 752 
Q 1681 391 2138 391 
Q 2594 391 2855 752 
Q 3116 1113 3116 1747 
z
M 1159 2969 
Q 1341 3281 1617 3432 
Q 1894 3584 2278 3584 
Q 2916 3584 3314 3078 
Q 3713 2572 3713 1747 
Q 3713 922 3314 415 
Q 2916 -91 2278 -91 
Q 1894 -91 1617 61 
Q 1341 213 1159 525 
L 1159 0 
L 581 0 
L 581 4863 
L 1159 4863 
L 1159 2969 
z
" transform="scale(0.015625)"/>
       <path id="DejaVuSans-6c" d="M 603 4863 
L 1178 4863 
L 1178 0 
L 603 0 
L 603 4863 
z
" transform="scale(0.015625)"/>
       <path id="DejaVuSans-69" d="M 603 3500 
L 1178 3500 
L 1178 0 
L 603 0 
L 603 3500 
z
M 603 4863 
L 1178 4863 
L 1178 4134 
L 603 4134 
L 603 4863 
z
" transform="scale(0.015625)"/>
       <path id="DejaVuSans-68" d="M 3513 2113 
L 3513 0 
L 2938 0 
L 2938 2094 
Q 2938 2591 2744 2837 
Q 2550 3084 2163 3084 
Q 1697 3084 1428 2787 
Q 1159 2491 1159 1978 
L 1159 0 
L 581 0 
L 581 4863 
L 1159 4863 
L 1159 2956 
Q 1366 3272 1645 3428 
Q 1925 3584 2291 3584 
Q 2894 3584 3203 3211 
Q 3513 2838 3513 2113 
z
" transform="scale(0.015625)"/>
       <path id="DejaVuSans-64" d="M 2906 2969 
L 2906 4863 
L 3481 4863 
L 3481 0 
L 2906 0 
L 2906 525 
Q 2725 213 2448 61 
Q 2172 -91 1784 -91 
Q 1150 -91 751 415 
Q 353 922 353 1747 
Q 353 2572 751 3078 
Q 1150 3584 1784 3584 
Q 2172 3584 2448 3432 
Q 2725 3281 2906 2969 
z
M 947 1747 
Q 947 1113 1208 752 
Q 1469 391 1925 391 
Q 2381 391 2643 752 
Q 2906 1113 2906 1747 
Q 2906 2381 2643 2742 
Q 2381 3103 1925 3103 
Q 1469 3103 1208 2742 
Q 947 2381 947 1747 
z
" transform="scale(0.015625)"/>
      </defs>
      <use xlink:href="#DejaVuSans-43"/>
      <use xlink:href="#DejaVuSans-6f" x="69.824219"/>
      <use xlink:href="#DejaVuSans-75" x="131.005859"/>
      <use xlink:href="#DejaVuSans-6e" x="194.384766"/>
      <use xlink:href="#DejaVuSans-74" x="257.763672"/>
      <use xlink:href="#DejaVuSans-20" x="296.972656"/>
      <use xlink:href="#DejaVuSans-6f" x="328.759766"/>
      <use xlink:href="#DejaVuSans-66" x="389.941406"/>
      <use xlink:href="#DejaVuSans-20" x="425.146484"/>
      <use xlink:href="#DejaVuSans-50" x="456.933594"/>
      <use xlink:href="#DejaVuSans-61" x="512.736328"/>
      <use xlink:href="#DejaVuSans-70" x="574.015625"/>
      <use xlink:href="#DejaVuSans-65" x="637.492188"/>
      <use xlink:href="#DejaVuSans-72" x="699.015625"/>
      <use xlink:href="#DejaVuSans-73" x="740.128906"/>
      <use xlink:href="#DejaVuSans-20" x="792.228516"/>
      <use xlink:href="#DejaVuSans-50" x="824.015625"/>
      <use xlink:href="#DejaVuSans-75" x="882.568359"/>
      <use xlink:href="#DejaVuSans-62" x="945.947266"/>
      <use xlink:href="#DejaVuSans-6c" x="1009.423828"/>
      <use xlink:href="#DejaVuSans-69" x="1037.207031"/>
      <use xlink:href="#DejaVuSans-73" x="1064.990234"/>
      <use xlink:href="#DejaVuSans-68" x="1117.089844"/>
      <use xlink:href="#DejaVuSans-65" x="1180.46875"/>
      <use xlink:href="#DejaVuSans-64" x="1241.992188"/>
      <use xlink:href="#DejaVuSans-20" x="1305.46875"/>
      <use xlink:href="#DejaVuSans-50" x="1337.255859"/>
      <use xlink:href="#DejaVuSans-65" x="1393.933594"/>
      <use xlink:href="#DejaVuSans-72" x="1455.457031"/>
      <use xlink:href="#DejaVuSans-20" x="1496.570312"/>
      <use xlink:href="#DejaVuSans-59" x="1528.357422"/>
      <use xlink:href="#DejaVuSans-65" x="1576.191406"/>
      <use xlink:href="#DejaVuSans-61" x="1637.714844"/>
      <use xlink:href="#DejaVuSans-72" x="1698.994141"/>
     </g>
    </g>
   </g>
   <g id="PolyCollection_1">
    <path d="M 45.65654 261.216 
L 45.65654 258.140746 
L 55.638155 258.140746 
L 55.638155 261.216 
z
" clip-path="url(#pc4415458d9)" style="fill: #0000ff"/>
    <path d="M 56.747223 261.216 
L 56.747223 260.190915 
L 66.728838 260.190915 
L 66.728838 261.216 
z
" clip-path="url(#pc4415458d9)" style="fill: #0000ff"/>
    <path d="M 67.837906 261.216 
L 67.837906 260.190915 
L 77.819521 260.190915 
L 77.819521 261.216 
z
" clip-path="url(#pc4415458d9)" style="fill: #0000ff"/>
    <path d="M 78.92859 261.216 
L 78.92859 259.165831 
L 88.910205 259.165831 
L 88.910205 261.216 
z
" clip-path="url(#pc4415458d9)" style="fill: #0000ff"/>
    <path d="M 90.019273 261.216 
L 90.019273 260.190915 
L 100.000888 260.190915 
L 100.000888 261.216 
z
" clip-path="url(#pc4415458d9)" style="fill: #0000ff"/>
    <path d="M 101.109956 261.216 
L 101.109956 257.115661 
L 111.091571 257.115661 
L 111.091571 261.216 
z
" clip-path="url(#pc4415458d9)" style="fill: #0000ff"/>
    <path d="M 112.200639 261.216 
L 112.200639 259.165831 
L 122.182254 259.165831 
L 122.182254 261.216 
z
" clip-path="url(#pc4415458d9)" style="fill: #0000ff"/>
    <path d="M 123.291323 261.216 
L 123.291323 259.165831 
L 133.272937 259.165831 
L 133.272937 261.216 
z
" clip-path="url(#pc4415458d9)" style="fill: #0000ff"/>
    <path d="M 134.382006 261.216 
L 134.382006 259.165831 
L 144.363621 259.165831 
L 144.363621 261.216 
z
" clip-path="url(#pc4415458d9)" style="fill: #0000ff"/>
    <path d="M 145.472689 261.216 
L 145.472689 259.165831 
L 155.454304 259.165831 
L 155.454304 261.216 
z
" clip-path="url(#pc4415458d9)" style="fill: #0000ff"/>
    <path d="M 156.563372 261.216 
L 156.563372 256.090576 
L 166.544987 256.090576 
L 166.544987 261.216 
z
" clip-path="url(#pc4415458d9)" style="fill: #0000ff"/>
    <path d="M 167.654056 261.216 
L 167.654056 259.165831 
L 177.63567 259.165831 
L 177.63567 261.216 
z
" clip-path="url(#pc4415458d9)" style="fill: #0000ff"/>
    <path d="M 178.744739 261.216 
L 178.744739 251.990237 
L 188.726354 251.990237 
L 188.726354 261.216 
z
" clip-path="url(#pc4415458d9)" style="fill: #0000ff"/>
    <path d="M 189.835422 261.216 
L 189.835422 256.090576 
L 199.817037 256.090576 
L 199.817037 261.216 
z
" clip-path="url(#pc4415458d9)" style="fill: #0000ff"/>
    <path d="M 200.926105 261.216 
L 200.926105 255.065492 
L 210.90772 255.065492 
L 210.90772 261.216 
z
" clip-path="url(#pc4415458d9)" style="fill: #0000ff"/>
    <path d="M 212.016788 261.216 
L 212.016788 251.990237 
L 221.998403 251.990237 
L 221.998403 261.216 
z
" clip-path="url(#pc4415458d9)" style="fill: #0000ff"/>
    <path d="M 223.107472 261.216 
L 223.107472 256.090576 
L 233.089087 256.090576 
L 233.089087 261.216 
z
" clip-path="url(#pc4415458d9)" style="fill: #0000ff"/>
    <path d="M 234.198155 261.216 
L 234.198155 250.965153 
L 244.17977 250.965153 
L 244.17977 261.216 
z
" clip-path="url(#pc4415458d9)" style="fill: #0000ff"/>
    <path d="M 245.288838 261.216 
L 245.288838 251.990237 
L 255.270453 251.990237 
L 255.270453 261.216 
z
" clip-path="url(#pc4415458d9)" style="fill: #0000ff"/>
    <path d="M 256.379521 261.216 
L 256.379521 256.090576 
L 266.361136 256.090576 
L 266.361136 261.216 
z
" clip-path="url(#pc4415458d9)" style="fill: #0000ff"/>
    <path d="M 267.470205 261.216 
L 267.470205 254.040407 
L 277.451819 254.040407 
L 277.451819 261.216 
z
" clip-path="url(#pc4415458d9)" style="fill: #0000ff"/>
    <path d="M 278.560888 261.216 
L 278.560888 258.140746 
L 288.542503 258.140746 
L 288.542503 261.216 
z
" clip-path="url(#pc4415458d9)" style="fill: #0000ff"/>
    <path d="M 289.651571 261.216 
L 289.651571 251.990237 
L 299.633186 251.990237 
L 299.633186 261.216 
z
" clip-path="url(#pc4415458d9)" style="fill: #0000ff"/>
    <path d="M 300.742254 261.216 
L 300.742254 253.015322 
L 310.723869 253.015322 
L 310.723869 261.216 
z
" clip-path="url(#pc4415458d9)" style="fill: #0000ff"/>
    <path d="M 311.832938 261.216 
L 311.832938 249.940068 
L 321.814552 249.940068 
L 321.814552 261.216 
z
" clip-path="url(#pc4415458d9)" style="fill: #0000ff"/>
    <path d="M 322.923621 261.216 
L 322.923621 253.015322 
L 332.905236 253.015322 
L 332.905236 261.216 
z
" clip-path="url(#pc4415458d9)" style="fill: #0000ff"/>
    <path d="M 334.014304 261.216 
L 334.014304 240.714305 
L 343.995919 240.714305 
L 343.995919 261.216 
z
" clip-path="url(#pc4415458d9)" style="fill: #0000ff"/>
    <path d="M 345.104987 261.216 
L 345.104987 206.886508 
L 355.086602 206.886508 
L 355.086602 261.216 
z
" clip-path="url(#pc4415458d9)" style="fill: #0000ff"/>
    <path d="M 356.19567 261.216 
L 356.19567 162.807864 
L 366.177285 162.807864 
L 366.177285 261.216 
z
" clip-path="url(#pc4415458d9)" style="fill: #0000ff"/>
    <path d="M 367.286354 261.216 
L 367.286354 121.804475 
L 377.267969 121.804475 
L 377.267969 261.216 
z
" clip-path="url(#pc4415458d9)" style="fill: #0000ff"/>
    <path d="M 378.377037 261.216 
L 378.377037 19.296 
L 388.358652 19.296 
L 388.358652 261.216 
z
" clip-path="url(#pc4415458d9)" style="fill: #0000ff"/>
    <path d="M 389.46772 261.216 
L 389.46772 107.453288 
L 399.449335 107.453288 
L 399.449335 261.216 
z
" clip-path="url(#pc4415458d9)" style="fill: #0000ff"/>
   </g>
   <g id="patch_3">
    <path d="M 43.992938 273.312 
L 43.992938 7.2 
" style="fill: none; stroke: #000000; stroke-linejoin: miter; stroke-linecap: square"/>
   </g>
   <g id="patch_4">
    <path d="M 43.992938 273.312 
L 401.112937 273.312 
" style="fill: none; stroke: #000000; stroke-linejoin: miter; stroke-linecap: square"/>
   </g>
  </g>
 </g>
 <defs>
  <clipPath id="pc4415458d9">
   <rect x="43.992938" y="7.2" width="357.12" height="266.112"/>
  </clipPath>
 </defs>
</svg>
